<svg xmlns="http://www.w3.org/2000/svg" viewBox="0 0 200 200" width="100%" height="100%">
  <rect width="200" height="200" fill="#3a1018" rx="16"/>
  <circle cx="100" cy="100" r="82" fill="none" stroke="#d4af37" stroke-width="2" opacity="0.35"/>
  <g transform="translate(100,82) scale(0.85)">
    <!-- Papal Crossed Keys & Tiara Silhouette -->
    <!-- Gold Key -->
    <path d="M-40,-30 L30,40 M20,30 L25,35 M30,40 L35,45" stroke="#d4af37" stroke-width="5" stroke-linecap="round"/>
    <circle cx="-42" cy="-32" r="12" fill="none" stroke="#d4af37" stroke-width="4"/>
    <!-- Silver Key -->
    <path d="M40,-30 L-30,40 M-20,30 L-25,35 M-30,40 L-35,45" stroke="#d1d5db" stroke-width="5" stroke-linecap="round"/>
    <circle cx="42" cy="-32" r="12" fill="none" stroke="#d1d5db" stroke-width="4"/>
    <!-- Papal Crown/Tiara silhouette above -->
    <path d="M-20,-38 Q0,-65 20,-38 Q15,-30 0,-32 Q-15,-30 -20,-38 Z" fill="#d4af37"/>
    <rect x="-24" y="-36" width="48" height="6" fill="#ffffff" rx="2"/>
  </g>
  <text x="100" y="152" font-family="'Cinzel', 'Times New Roman', serif" font-size="14" font-weight="bold" fill="#ffffff" text-anchor="middle" letter-spacing="2">MUSEI VATICANI</text>
  <text x="100" y="168" font-family="sans-serif" font-size="9" font-weight="600" fill="#d4af37" text-anchor="middle" letter-spacing="3">ROMA • EST. 1506</text>
</svg>
