<svg xmlns="http://www.w3.org/2000/svg" viewBox="0 0 800 600" width="100%" height="100%">
    <defs>
        <linearGradient id="bg" x1="0%" y1="0%" x2="100%" y2="100%">
            <stop offset="0%" stop-color="#141118" />
            <stop offset="50%" stop-color="#1e1824" />
            <stop offset="100%" stop-color="#120e16" />
        </linearGradient>
        <radialGradient id="glow" cx="50%" cy="50%" r="50%">
            <stop offset="0%" stop-color="#c5a059" stop-opacity="0.15" />
            <stop offset="100%" stop-color="#c5a059" stop-opacity="0" />
        </radialGradient>
    </defs>
    <rect width="800" height="600" fill="url(#bg)" />
    <circle cx="400" cy="280" r="220" fill="url(#glow)" />
    <g transform="translate(400, 280)" stroke="#c5a059" stroke-width="2.5" fill="none" stroke-linecap="round" stroke-linejoin="round" opacity="0.85">
        <!-- Pedestal -->
        <path d="M-80 120 L80 120 M-60 120 L-40 80 L40 80 L60 120 M-45 80 L45 80" />
        <!-- Amphora / Artifact vessel -->
        <path d="M0 -110 C-30 -110 -35 -80 -20 -50 C-5 -20 -60 10 -40 60 C-25 95 -15 80 0 80 C15 80 25 95 40 60 C60 10 5 -20 20 -50 C35 -80 30 -110 0 -110 Z" fill="#1c1622" />
        <!-- Handles -->
        <path d="M-22 -85 C-55 -85 -55 -40 -30 -30" />
        <path d="M22 -85 C55 -85 55 -40 30 -30" />
        <!-- Decorative band -->
        <path d="M-34 15 L34 15 M-36 25 L36 25" stroke-width="1.5" stroke="#e6c887" opacity="0.6" />
        <!-- Star burst / spark -->
        <path d="M0 -135 L0 -145 M-10 -140 L10 -140" stroke="#e6c887" stroke-width="2" />
    </g>
    <text x="400" y="470" font-family="'Cinzel', serif, sans-serif" font-size="22" fill="#c5a059" letter-spacing="4" text-anchor="middle" opacity="0.9">ARTEVO ARCHIVE</text>
    <text x="400" y="500" font-family="sans-serif" font-size="13" fill="#8c8294" letter-spacing="2" text-anchor="middle" opacity="0.7">HISTORICAL ARTIFACT RECORD</text>
</svg>
